<svg xmlns="http://www.w3.org/2000/svg" width="74" height="74" viewBox="0 0 74 74">
  <g id="Group_1507" data-name="Group 1507" transform="translate(-637.5 -589.761)">
    <g id="Group_165" data-name="Group 165" transform="translate(637.5 589.887)">
      <g id="Group_126" data-name="Group 126" transform="translate(0 0)">
        <g id="side_menu_header" data-name="side menu header">
          <rect id="Rectangle_1728" data-name="Rectangle 1728" width="74" height="74" rx="6" transform="translate(0 -0.126)" fill="#0a0a0a"/>
          <path id="Path_6" data-name="Path 6" d="M48.193,61a3.79,3.79,0,0,1,1.93,1.06Q60.64,69.542,71.134,77.05c1.62,1.154,1.851,1.064,2.083-.915q1.99-16.92,3.952-33.845c.088-.748-.151-2.033.716-2.044,1.064-.011.768,1.305.859,2.069q2,16.92,3.945,33.847c.224,1.914.5,2.029,2.11.879q10.575-7.534,21.143-15.076a3.132,3.132,0,0,1,1.921-.94,6.516,6.516,0,0,1-1.88,2.6q-8.755,9.684-17.53,19.353c-.364.4-1.1.76-.791,1.422.235.512.931.431,1.451.514,4.8.769,9.612,1.522,14.414,2.308.54.088,1.415-.011,1.464.688.061.872-.866.789-1.451.883-5.592.92-11.191,1.8-16.783,2.716-1.909.313-1.977.476-1.125,2.263.987,2.072,2,4.134,2.964,6.213.208.449.737.989.2,1.443-.594.507-1.094-.088-1.539-.428-2.382-1.81-4.747-3.641-7.122-5.462-2.176-1.67-2.178-1.67-4.3-.047-2.415,1.853-4.826,3.715-7.246,5.563-.413.313-.881.814-1.419.424-.6-.435-.1-.987.106-1.431.994-2.126,2.032-4.233,3.041-6.352.809-1.7.734-1.873-1.082-2.171-5.12-.832-10.245-1.641-15.365-2.46-.581-.092-1.164-.185-1.74-.3-.511-.1-1.222-.079-1.247-.753-.029-.737.746-.661,1.218-.742,3.586-.6,7.179-1.159,10.769-1.731,1.372-.216,2.748-.428,4.119-.654.468-.077,1.089-.027,1.288-.5.255-.6-.389-.926-.725-1.3q-7.246-8.027-14.518-16.03c-1.326-1.465-2.678-2.908-3.979-4.394C48.672,62.223,48.046,61.856,48.193,61Z" transform="translate(-41.063 -34.086)" fill="#edebeb"/>
        </g>
      </g>
    </g>
  </g>
</svg>
